<svg width="128" height="128" viewBox="0 0 128 128" fill="none" xmlns="http://www.w3.org/2000/svg">
<g clip-path="url(#clip0_5_160)">
<path d="M112 2H16C8.26801 2 2 8.26801 2 16V112C2 119.732 8.26801 126 16 126H112C119.732 126 126 119.732 126 112V16C126 8.26801 119.732 2 112 2Z" fill="#1F2937" stroke="#AC3232" stroke-width="4"/>
<path d="M92.0476 77C89.9777 77.4602 87.9301 78.1008 86.0104 79.0671C86.0543 80.7622 86.1639 82.3864 86.386 84.0362C85.6405 84.5139 84.857 84.9238 84.1606 85.4829C83.4531 86.0272 82.7305 86.548 82.0898 87.1846C80.8099 86.338 79.4553 85.5425 78.0598 84.8403C76.5555 86.4592 75.149 88.2065 74 90.1618C74.903 91.5792 75.8716 93.0038 76.7685 94.1148V103.772V104.999V106.115C76.7905 106.115 76.8124 106.116 76.8341 106.118L84.1911 106.827C84.5764 106.865 84.8784 107.175 84.9053 107.561L85.1321 110.809L91.5496 111.267L91.9917 108.269C92.0491 107.881 92.3824 107.593 92.7755 107.593H100.537C100.93 107.593 101.263 107.881 101.321 108.269L101.763 111.267L108.181 110.809L108.407 107.561C108.434 107.175 108.736 106.865 109.121 106.827L116.476 106.118C116.497 106.116 116.519 106.115 116.541 106.115V105.158L116.544 105.157V94.1148C117.58 92.8107 118.561 91.3721 119.312 90.1618C118.164 88.2065 116.757 86.4592 115.252 84.8403C113.857 85.5425 112.502 86.338 111.222 87.1846C110.582 86.548 109.86 86.0272 109.152 85.4829C108.456 84.9238 107.671 84.5139 106.927 84.0362C107.149 82.3864 107.258 80.7622 107.302 79.0671C105.382 78.1008 103.335 77.4602 101.264 77C100.437 78.3896 99.6811 79.8945 99.0226 81.3656C98.2417 81.2351 97.4572 81.1868 96.6716 81.1775V81.1762C96.6661 81.1762 96.661 81.1775 96.6563 81.1775C96.6515 81.1775 96.6463 81.1762 96.6415 81.1762V81.1775C95.8545 81.1868 95.0706 81.2351 94.2895 81.3656C93.6314 79.8945 92.8757 78.3896 92.0476 77ZM86.2273 94.5549C88.6761 94.5549 90.6609 96.5381 90.6609 98.9861C90.6609 101.436 88.6761 103.42 86.2273 103.42C83.7798 103.42 81.7944 101.436 81.7944 98.9861C81.7944 96.5381 83.7798 94.5549 86.2273 94.5549ZM107.086 94.5549C109.533 94.5549 111.518 96.5381 111.518 98.9861C111.518 101.436 109.533 103.42 107.086 103.42C104.636 103.42 102.652 101.436 102.652 98.9861C102.652 96.5381 104.636 94.5549 107.086 94.5549ZM96.656 97.1481C97.4442 97.1481 98.0844 97.7295 98.0844 98.445V102.527C98.0844 103.243 97.4442 103.824 96.656 103.824C95.8678 103.824 95.2289 103.243 95.2289 102.527V98.445C95.2289 97.7295 95.8678 97.1481 96.656 97.1481Z" fill="white"/>
<path d="M109.941 108.34L109.713 111.605C109.686 111.999 109.373 112.312 108.979 112.34L101.143 112.899C101.124 112.901 101.105 112.901 101.086 112.901C100.696 112.901 100.36 112.615 100.303 112.224L99.8534 109.177H93.4592L93.0098 112.224C92.9495 112.635 92.5828 112.929 92.1698 112.899L84.3334 112.34C83.9399 112.312 83.6269 111.999 83.5995 111.605L83.3716 108.34L76.7563 107.702C76.7594 108.413 76.7685 109.192 76.7685 109.347C76.7685 116.334 85.6314 119.692 96.6428 119.731H96.6562H96.6698C107.681 119.692 116.541 116.334 116.541 109.347C116.541 109.189 116.551 108.414 116.554 107.702L109.941 108.34Z" fill="white"/>
<path d="M89.5941 99.2491C89.5941 100.874 88.2772 102.191 86.6512 102.191C85.026 102.191 83.7083 100.874 83.7083 99.2491C83.7083 97.6243 85.026 96.3062 86.6512 96.3062C88.2772 96.3062 89.5941 97.6243 89.5941 99.2491Z" fill="white"/>
<path d="M103.719 99.2491C103.719 100.874 105.035 102.191 106.66 102.191C108.286 102.191 109.603 100.874 109.603 99.2491C109.603 97.6243 108.286 96.3062 106.66 96.3062C105.035 96.3062 103.719 97.6243 103.719 99.2491Z" fill="white"/>
<g filter="url(#filter0_d_5_160)">
<path d="M48.0007 34.5646C47.9238 34.3153 47.8176 34.0922 47.6822 33.8952C47.5498 33.6952 47.3898 33.5244 47.2021 33.3828C47.0174 33.2412 46.805 33.1351 46.565 33.0643C46.3249 32.9904 46.0633 32.9535 45.7802 32.9535C45.2724 32.9535 44.82 33.0812 44.4229 33.3366C44.0259 33.5921 43.7135 33.9676 43.4858 34.4631C43.2611 34.9555 43.1488 35.5556 43.1488 36.2635C43.1488 36.9775 43.2611 37.5823 43.4858 38.0778C43.7105 38.5733 44.0228 38.9503 44.4229 39.2088C44.823 39.4643 45.2878 39.592 45.8171 39.592C46.2972 39.592 46.7127 39.4996 47.0636 39.315C47.4175 39.1303 47.6899 38.8687 47.8807 38.5302C48.0715 38.1886 48.1669 37.7885 48.1669 37.3299L48.5547 37.3899H45.9879V36.0511H49.8242V37.1868C49.8242 37.9962 49.6519 38.6964 49.3072 39.2873C48.9625 39.8782 48.4885 40.3337 47.8853 40.6538C47.2821 40.9708 46.5896 41.1293 45.8079 41.1293C44.9369 41.1293 44.1721 40.9338 43.5135 40.543C42.858 40.149 42.3455 39.5904 41.9762 38.8672C41.61 38.1409 41.4268 37.2791 41.4268 36.282C41.4268 35.5187 41.5346 34.837 41.75 34.2369C41.9685 33.6367 42.2732 33.1274 42.6641 32.7088C43.0549 32.2872 43.5135 31.9671 44.0398 31.7486C44.5661 31.527 45.1385 31.4162 45.7571 31.4162C46.2803 31.4162 46.7681 31.4931 47.2205 31.647C47.6729 31.7978 48.0746 32.0133 48.4254 32.2933C48.7794 32.5734 49.0702 32.9058 49.2979 33.2905C49.5257 33.6752 49.675 34.0999 49.7457 34.5646H48.0007ZM59.9285 36.2727C59.9285 37.2914 59.7377 38.1639 59.3561 38.8903C58.9775 39.6135 58.4605 40.1675 57.805 40.5522C57.1525 40.9369 56.4123 41.1293 55.5844 41.1293C54.7565 41.1293 54.0148 40.9369 53.3593 40.5522C52.7068 40.1644 52.1898 39.6089 51.8081 38.8857C51.4296 38.1593 51.2403 37.2884 51.2403 36.2727C51.2403 35.254 51.4296 34.383 51.8081 33.6598C52.1898 32.9335 52.7068 32.378 53.3593 31.9933C54.0148 31.6085 54.7565 31.4162 55.5844 31.4162C56.4123 31.4162 57.1525 31.6085 57.805 31.9933C58.4605 32.378 58.9775 32.9335 59.3561 33.6598C59.7377 34.383 59.9285 35.254 59.9285 36.2727ZM58.2066 36.2727C58.2066 35.5556 58.0943 34.9509 57.8696 34.4585C57.648 33.9629 57.3402 33.589 56.9463 33.3366C56.5523 33.0812 56.0984 32.9535 55.5844 32.9535C55.0705 32.9535 54.6165 33.0812 54.2226 33.3366C53.8286 33.589 53.5193 33.9629 53.2947 34.4585C53.0731 34.9509 52.9623 35.5556 52.9623 36.2727C52.9623 36.9898 53.0731 37.5961 53.2947 38.0916C53.5193 38.584 53.8286 38.958 54.2226 39.2134C54.6165 39.4658 55.0705 39.592 55.5844 39.592C56.0984 39.592 56.5523 39.4658 56.9463 39.2134C57.3402 38.958 57.648 38.584 57.8696 38.0916C58.0943 37.5961 58.2066 36.9898 58.2066 36.2727ZM64.7516 41H61.5478V31.5455H64.8162C65.7549 31.5455 66.5613 31.7347 67.2353 32.1133C67.9123 32.4888 68.4325 33.0289 68.7956 33.7337C69.1588 34.4384 69.3404 35.2817 69.3404 36.2635C69.3404 37.2483 69.1573 38.0947 68.791 38.8026C68.4279 39.5104 67.9031 40.0536 67.2168 40.4322C66.5336 40.8107 65.7118 41 64.7516 41ZM63.2605 39.5181H64.6685C65.3271 39.5181 65.8765 39.3981 66.3166 39.158C66.7567 38.9149 67.0875 38.5533 67.3091 38.0732C67.5307 37.59 67.6415 36.9867 67.6415 36.2635C67.6415 35.5402 67.5307 34.9401 67.3091 34.4631C67.0875 33.983 66.7598 33.6244 66.3258 33.3874C65.8949 33.1474 65.3594 33.0273 64.7193 33.0273H63.2605V39.5181ZM79.4158 36.2727C79.4158 37.2914 79.225 38.1639 78.8434 38.8903C78.4648 39.6135 77.9478 40.1675 77.2923 40.5522C76.6398 40.9369 75.8996 41.1293 75.0717 41.1293C74.2438 41.1293 73.5021 40.9369 72.8466 40.5522C72.1941 40.1644 71.6771 39.6089 71.2955 38.8857C70.9169 38.1593 70.7276 37.2884 70.7276 36.2727C70.7276 35.254 70.9169 34.383 71.2955 33.6598C71.6771 32.9335 72.1941 32.378 72.8466 31.9933C73.5021 31.6085 74.2438 31.4162 75.0717 31.4162C75.8996 31.4162 76.6398 31.6085 77.2923 31.9933C77.9478 32.378 78.4648 32.9335 78.8434 33.6598C79.225 34.383 79.4158 35.254 79.4158 36.2727ZM77.6939 36.2727C77.6939 35.5556 77.5816 34.9509 77.3569 34.4585C77.1353 33.9629 76.8275 33.589 76.4336 33.3366C76.0397 33.0812 75.5857 32.9535 75.0717 32.9535C74.5578 32.9535 74.1038 33.0812 73.7099 33.3366C73.3159 33.589 73.0066 33.9629 72.782 34.4585C72.5604 34.9509 72.4496 35.5556 72.4496 36.2727C72.4496 36.9898 72.5604 37.5961 72.782 38.0916C73.0066 38.584 73.3159 38.958 73.7099 39.2134C74.1038 39.4658 74.5578 39.592 75.0717 39.592C75.5857 39.592 76.0397 39.4658 76.4336 39.2134C76.8275 38.958 77.1353 38.584 77.3569 38.0916C77.5816 37.5961 77.6939 36.9898 77.6939 36.2727ZM80.2006 32.9812V31.5455H87.744V32.9812H84.8217V41H83.1229V32.9812H80.2006ZM11.8964 57V47.5455H17.9532V48.9812H13.6091V51.5479H17.5377V52.9837H13.6091V57H11.8964ZM25.4735 47.5455H27.1862V53.7223C27.1862 54.3994 27.0261 54.9949 26.7061 55.5089C26.3891 56.0228 25.9428 56.4245 25.3673 56.7138C24.7918 57 24.1193 57.1431 23.3499 57.1431C22.5774 57.1431 21.9034 57 21.3279 56.7138C20.7523 56.4245 20.3061 56.0228 19.9891 55.5089C19.6721 54.9949 19.5136 54.3994 19.5136 53.7223V47.5455H21.2263V53.5792C21.2263 53.9731 21.3125 54.324 21.4848 54.6317C21.6602 54.9395 21.9065 55.1811 22.2235 55.3565C22.5405 55.5289 22.9159 55.6151 23.3499 55.6151C23.7838 55.6151 24.1593 55.5289 24.4763 55.3565C24.7964 55.1811 25.0426 54.9395 25.2149 54.6317C25.3873 54.324 25.4735 53.9731 25.4735 53.5792V47.5455ZM36.8173 47.5455V57H35.2939L30.839 50.56H30.7605V57H29.0478V47.5455H30.5804L35.0307 53.9901H35.1138V47.5455H36.8173ZM41.8873 57H38.6835V47.5455H41.952C42.8907 47.5455 43.697 47.7347 44.371 48.1133C45.0481 48.4888 45.5682 49.0289 45.9314 49.7337C46.2945 50.4384 46.4761 51.2817 46.4761 52.2635C46.4761 53.2483 46.293 54.0947 45.9268 54.8026C45.5636 55.5104 45.0389 56.0536 44.3525 56.4322C43.6693 56.8107 42.8476 57 41.8873 57ZM40.3962 55.5181H41.8042C42.4629 55.5181 43.0122 55.3981 43.4523 55.158C43.8924 54.9149 44.2233 54.5533 44.4449 54.0732C44.6665 53.59 44.7773 52.9867 44.7773 52.2635C44.7773 51.5402 44.6665 50.9401 44.4449 50.4631C44.2233 49.983 43.8955 49.6244 43.4616 49.3874C43.0307 49.1474 42.4952 49.0273 41.855 49.0273H40.3962V55.5181ZM48.8097 57H46.9816L50.3101 47.5455H52.4244L55.7575 57H53.9294L51.4042 49.4844H51.3303L48.8097 57ZM48.8698 53.293H53.8556V54.6687H48.8698V53.293ZM57.0028 47.5455H59.0987L61.9055 54.3963H62.0163L64.8232 47.5455H66.919V57H65.2756V50.5046H65.1879L62.5749 56.9723H61.3469L58.734 50.4908H58.6463V57H57.0028V47.5455ZM68.7841 57V47.5455H74.9332V48.9812H70.4968V51.5479H74.6147V52.9837H70.4968V55.5643H74.9702V57H68.7841ZM84.4501 47.5455V57H82.9267L78.4718 50.56H78.3933V57H76.6806V47.5455H78.2132L82.6635 53.9901H82.7466V47.5455H84.4501ZM85.9008 48.9812V47.5455H93.4442V48.9812H90.5219V57H88.8231V48.9812H85.9008ZM94.9699 57H93.1418L96.4703 47.5455H98.5846L101.918 57H100.09L97.5644 49.4844H97.4905L94.9699 57ZM95.0299 53.293H100.016V54.6687H95.0299V53.293ZM103.163 57V47.5455H104.876V55.5643H109.04V57H103.163ZM115.664 50.1445C115.621 49.7414 115.44 49.4274 115.12 49.2028C114.803 48.9781 114.39 48.8658 113.882 48.8658C113.525 48.8658 113.219 48.9196 112.964 49.0273C112.708 49.1351 112.513 49.2812 112.377 49.4659C112.242 49.6506 112.173 49.8614 112.17 50.0984C112.17 50.2953 112.214 50.4661 112.304 50.6108C112.396 50.7554 112.521 50.8786 112.678 50.9801C112.835 51.0786 113.008 51.1617 113.199 51.2294C113.39 51.2971 113.582 51.354 113.776 51.4002L114.663 51.6218C115.02 51.7049 115.363 51.8172 115.692 51.9588C116.025 52.1004 116.321 52.2789 116.583 52.4943C116.848 52.7098 117.057 52.9698 117.211 53.2745C117.365 53.5792 117.442 53.9362 117.442 54.3455C117.442 54.8995 117.3 55.3873 117.017 55.8089C116.734 56.2275 116.325 56.5553 115.789 56.7923C115.257 57.0262 114.612 57.1431 113.855 57.1431C113.119 57.1431 112.481 57.0292 111.939 56.8015C111.4 56.5737 110.979 56.2414 110.674 55.8043C110.372 55.3673 110.209 54.8349 110.185 54.207H111.87C111.894 54.5363 111.996 54.8103 112.174 55.0288C112.353 55.2473 112.585 55.4104 112.871 55.5181C113.161 55.6258 113.484 55.6797 113.841 55.6797C114.213 55.6797 114.54 55.6243 114.82 55.5135C115.103 55.3996 115.324 55.2427 115.484 55.0426C115.644 54.8395 115.726 54.6025 115.729 54.3317C115.726 54.0855 115.654 53.8823 115.512 53.7223C115.371 53.5592 115.172 53.4238 114.917 53.3161C114.664 53.2053 114.369 53.1068 114.03 53.0206L112.955 52.7436C112.176 52.5436 111.56 52.2404 111.108 51.8342C110.659 51.4248 110.434 50.8816 110.434 50.2045C110.434 49.6475 110.585 49.1597 110.886 48.7411C111.191 48.3226 111.605 47.9979 112.128 47.767C112.651 47.5331 113.244 47.4162 113.906 47.4162C114.576 47.4162 115.164 47.5331 115.669 47.767C116.177 47.9979 116.575 48.3195 116.865 48.7319C117.154 49.1412 117.303 49.6121 117.312 50.1445H115.664Z" fill="white"/>
</g>
<path d="M22.8 90.4H52.4ZM20.4 91.2H22.8ZM52.4 91.2H53.2ZM18.8 92H20.4ZM22.8 92H47.6ZM53.2 92H54ZM17.2 92.8H18.8ZM20.4 92.8H22.8ZM53.2 92.8H54ZM57.2 92.8H58.8ZM16.4 93.6H17.2ZM18.8 93.6H19.6ZM53.2 93.6H54ZM56.4 93.6H57.2ZM58.8 93.6H59.6ZM15.6 94.4H16.4ZM17.2 94.4H18.8ZM54 94.4H56.4ZM59.6 94.4H60.4ZM14.8 95.2H15.6ZM16.4 95.2H17.2ZM60.4 95.2H61.2ZM14 96H14.8ZM15.6 96H16.4ZM61.2 96H62ZM14 96.8H14.8ZM15.6 96.8H16.4ZM61.2 96.8H62ZM13.2 97.6H14ZM14.8 97.6H15.6ZM60.4 97.6H61.2ZM13.2 98.4H14ZM59.6 98.4H60.4ZM12.4 99.2H13.2ZM14 99.2H14.8ZM59.6 99.2H60.4ZM12.4 100H13.2ZM60.4 100H61.2ZM11.6 100.8H12.4ZM60.4 100.8H62.8ZM11.6 101.6H12.4ZM62.8 101.6H63.6ZM11.6 102.4H12.4ZM63.6 102.4H64.4ZM11.6 103.2H12.4ZM63.6 103.2H64.4ZM11.6 104H12.4ZM63.6 104H64.4ZM11.6 104.8H12.4ZM63.6 104.8H64.4ZM11.6 105.6H12.4ZM62.8 105.6H63.6ZM11.6 106.4H12.4ZM60.4 106.4H62.8ZM12.4 107.2H13.2ZM60.4 107.2H61.2ZM12.4 108H13.2ZM59.6 108H60.4ZM13.2 108.8H14ZM59.6 108.8H60.4ZM13.2 109.6H14ZM60.4 109.6H61.2ZM14 110.4H14.8ZM61.2 110.4H62ZM14 111.2H14.8ZM61.2 111.2H62ZM14.8 112H15.6ZM60.4 112H61.2ZM15.6 112.8H16.4ZM45.2 112.8H47.6ZM54 112.8H56.4ZM59.6 112.8H60.4ZM16.4 113.6H17.2ZM32.4 113.6H42.8ZM44.4 113.6H45.2ZM47.6 113.6H48.4ZM53.2 113.6H54ZM56.4 113.6H57.2ZM58.8 113.6H59.6ZM17.2 114.4H18.8ZM31.6 114.4H32.4ZM42.8 114.4H44.4ZM47.6 114.4H48.4ZM53.2 114.4H54ZM57.2 114.4H58.8ZM18.8 115.2H20.4ZM30 115.2H31.6ZM47.6 115.2H48.4ZM53.2 115.2H54ZM20.4 116H22.8ZM27.6 116H30ZM48.4 116H49.2ZM52.4 116H53.2ZM22.8 116.8H27.6ZM49.2 116.8H52.4Z" fill="black"/>
<path d="M22.8 90.4H52.4M20.4 91.2H22.8M52.4 91.2H53.2M18.8 92H20.4M22.8 92H47.6M53.2 92H54M17.2 92.8H18.8M20.4 92.8H22.8M53.2 92.8H54M57.2 92.8H58.8M16.4 93.6H17.2M18.8 93.6H19.6M53.2 93.6H54M56.4 93.6H57.2M58.8 93.6H59.6M15.6 94.4H16.4M17.2 94.4H18.8M54 94.4H56.4M59.6 94.4H60.4M14.8 95.2H15.6M16.4 95.2H17.2M60.4 95.2H61.2M14 96H14.8M15.6 96H16.4M61.2 96H62M14 96.8H14.8M15.6 96.8H16.4M61.2 96.8H62M13.2 97.6H14M14.8 97.6H15.6M60.4 97.6H61.2M13.2 98.4H14M59.6 98.4H60.4M12.4 99.2H13.2M14 99.2H14.8M59.6 99.2H60.4M12.4 100H13.2M60.4 100H61.2M11.6 100.8H12.4M60.4 100.8H62.8M11.6 101.6H12.4M62.8 101.6H63.6M11.6 102.4H12.4M63.6 102.4H64.4M11.6 103.2H12.4M63.6 103.2H64.4M11.6 104H12.4M63.6 104H64.4M11.6 104.8H12.4M63.6 104.8H64.4M11.6 105.6H12.4M62.8 105.6H63.6M11.6 106.4H12.4M60.4 106.4H62.8M12.4 107.2H13.2M60.4 107.2H61.2M12.4 108H13.2M59.6 108H60.4M13.2 108.8H14M59.6 108.8H60.4M13.2 109.6H14M60.4 109.6H61.2M14 110.4H14.8M61.2 110.4H62M14 111.2H14.8M61.2 111.2H62M14.8 112H15.6M60.4 112H61.2M15.6 112.8H16.4M45.2 112.8H47.6M54 112.8H56.4M59.6 112.8H60.4M16.4 113.6H17.2M32.4 113.6H42.8M44.4 113.6H45.2M47.6 113.6H48.4M53.2 113.6H54M56.4 113.6H57.2M58.8 113.6H59.6M17.2 114.4H18.8M31.6 114.4H32.4M42.8 114.4H44.4M47.6 114.4H48.4M53.2 114.4H54M57.2 114.4H58.8M18.8 115.2H20.4M30 115.2H31.6M47.6 115.2H48.4M53.2 115.2H54M20.4 116H22.8M27.6 116H30M48.4 116H49.2M52.4 116H53.2M22.8 116.8H27.6M49.2 116.8H52.4" stroke="white"/>
<path d="M22.8 91.2H52.4ZM20.4 92H22.8ZM48.4 92H49.2ZM52.4 92H53.2ZM18.8 92.8H20.4ZM48.4 92.8H49.2ZM52.4 92.8H53.2ZM17.2 93.6H18.8ZM42.8 93.6H44.4ZM48.4 93.6H49.2ZM52.4 93.6H53.2ZM57.2 93.6H58.8ZM16.4 94.4H17.2ZM42 94.4H42.8ZM44.4 94.4H45.2ZM47.6 94.4H48.4ZM53.2 94.4H54ZM56.4 94.4H57.2ZM58.8 94.4H59.6ZM15.6 95.2H16.4ZM41.2 95.2H42ZM45.2 95.2H47.6ZM54 95.2H56.4ZM59.6 95.2H60.4ZM14.8 96H15.6ZM40.4 96H41.2ZM60.4 96H61.2ZM14.8 96.8H15.6ZM40.4 96.8H41.2ZM60.4 96.8H61.2ZM14 97.6H14.8ZM41.2 97.6H42ZM59.6 97.6H60.4ZM14 98.4H14.8ZM23.6 98.4H26.8ZM42 98.4H42.8ZM58.8 98.4H59.6ZM13.2 99.2H14ZM23.6 99.2H24.4ZM26 99.2H26.8ZM42 99.2H42.8ZM46.8 99.2H48.4ZM53.2 99.2H54.8ZM58.8 99.2H59.6ZM13.2 100H14ZM23.6 100H24.4ZM26 100H26.8ZM41.2 100H42ZM46 100H46.8ZM54.8 100H55.6ZM59.6 100H60.4ZM12.4 100.8H13.2ZM23.6 100.8H24.4ZM26 100.8H26.8ZM41.2 100.8H42ZM46 100.8H46.8ZM54.8 100.8H55.6ZM59.6 100.8H60.4ZM12.4 101.6H13.2ZM24.4 101.6H26ZM38.8 101.6H41.2ZM46 101.6H46.8ZM54.8 101.6H55.6ZM60.4 101.6H62.8ZM12.4 102.4H13.2ZM19.6 102.4H22.8ZM27.6 102.4H30.8ZM38 102.4H38.8ZM46 102.4H46.8ZM54.8 102.4H55.6ZM62.8 102.4H63.6ZM12.4 103.2H13.2ZM19.6 103.2H20.4ZM22.8 103.2H23.6ZM26.8 103.2H27.6ZM30 103.2H30.8ZM38 103.2H38.8ZM45.2 103.2H46ZM55.6 103.2H56.4ZM62.8 103.2H63.6ZM12.4 104H13.2ZM19.6 104H20.4ZM22.8 104H23.6ZM26.8 104H27.6ZM30 104H30.8ZM38 104H38.8ZM45.2 104H46ZM55.6 104H56.4ZM62.8 104H63.6ZM12.4 104.8H13.2ZM19.6 104.8H22.8ZM27.6 104.8H30.8ZM38 104.8H38.8ZM46 104.8H46.8ZM54.8 104.8H55.6ZM62.8 104.8H63.6ZM12.4 105.6H13.2ZM24.4 105.6H26ZM38.8 105.6H41.2ZM46 105.6H46.8ZM54.8 105.6H55.6ZM60.4 105.6H62.8ZM12.4 106.4H13.2ZM23.6 106.4H24.4ZM26 106.4H26.8ZM41.2 106.4H42ZM46 106.4H46.8ZM48.4 106.4H49.2ZM50 106.4H50.8ZM51.6 106.4H52.4ZM54.8 106.4H55.6ZM59.6 106.4H60.4ZM13.2 107.2H14ZM23.6 107.2H24.4ZM26 107.2H26.8ZM41.2 107.2H42ZM46 107.2H46.8ZM54.8 107.2H55.6ZM59.6 107.2H60.4ZM13.2 108H14ZM23.6 108H24.4ZM26 108H26.8ZM42 108H42.8ZM46.8 108H48.4ZM53.2 108H54.8ZM58.8 108H59.6ZM14 108.8H14.8ZM23.6 108.8H26.8ZM42 108.8H42.8ZM58.8 108.8H59.6ZM14 109.6H14.8ZM41.2 109.6H42ZM59.6 109.6H60.4ZM14.8 110.4H15.6ZM40.4 110.4H41.2ZM60.4 110.4H61.2ZM14.8 111.2H15.6ZM40.4 111.2H41.2ZM60.4 111.2H61.2ZM15.6 112H16.4ZM41.2 112H42ZM45.2 112H47.6ZM54 112H56.4ZM59.6 112H60.4ZM16.4 112.8H17.2ZM32.4 112.8H42.8ZM44.4 112.8H45.2ZM47.6 112.8H48.4ZM53.2 112.8H54ZM56.4 112.8H57.2ZM58.8 112.8H59.6ZM17.2 113.6H18.8ZM31.6 113.6H32.4ZM42.8 113.6H44.4ZM48.4 113.6H49.2ZM52.4 113.6H53.2ZM57.2 113.6H58.8ZM18.8 114.4H20.4ZM30 114.4H31.6ZM48.4 114.4H49.2ZM52.4 114.4H53.2ZM20.4 115.2H22.8ZM27.6 115.2H30ZM48.4 115.2H49.2ZM52.4 115.2H53.2ZM22.8 116H27.6ZM49.2 116H52.4Z" fill="black"/>
<path d="M22.8 91.2H52.4M20.4 92H22.8M48.4 92H49.2M52.4 92H53.2M18.8 92.8H20.4M48.4 92.8H49.2M52.4 92.8H53.2M17.2 93.6H18.8M42.8 93.6H44.4M48.4 93.6H49.2M52.4 93.6H53.2M57.2 93.6H58.8M16.4 94.4H17.2M42 94.4H42.8M44.4 94.4H45.2M47.6 94.4H48.4M53.2 94.4H54M56.4 94.4H57.2M58.8 94.4H59.6M15.6 95.2H16.4M41.2 95.2H42M45.2 95.2H47.6M54 95.2H56.4M59.6 95.2H60.4M14.8 96H15.6M40.4 96H41.2M60.4 96H61.2M14.8 96.8H15.6M40.4 96.8H41.2M60.4 96.8H61.2M14 97.6H14.8M41.2 97.6H42M59.6 97.6H60.4M14 98.4H14.8M23.6 98.4H26.8M42 98.4H42.8M58.8 98.4H59.6M13.2 99.2H14M23.6 99.2H24.4M26 99.2H26.8M42 99.2H42.8M46.8 99.2H48.4M53.2 99.2H54.8M58.8 99.2H59.6M13.2 100H14M23.6 100H24.4M26 100H26.8M41.2 100H42M46 100H46.8M54.8 100H55.6M59.6 100H60.4M12.4 100.8H13.2M23.6 100.8H24.4M26 100.8H26.8M41.2 100.8H42M46 100.8H46.8M54.8 100.8H55.6M59.6 100.8H60.4M12.4 101.6H13.2M24.4 101.6H26M38.8 101.6H41.2M46 101.6H46.8M54.8 101.6H55.6M60.4 101.6H62.8M12.4 102.4H13.2M19.6 102.4H22.8M27.6 102.4H30.8M38 102.4H38.8M46 102.4H46.8M54.8 102.4H55.6M62.8 102.4H63.6M12.4 103.2H13.2M19.6 103.2H20.4M22.8 103.2H23.6M26.8 103.2H27.6M30 103.2H30.8M38 103.2H38.8M45.2 103.2H46M55.6 103.2H56.4M62.8 103.2H63.6M12.4 104H13.2M19.6 104H20.4M22.8 104H23.6M26.8 104H27.6M30 104H30.8M38 104H38.8M45.2 104H46M55.6 104H56.4M62.8 104H63.6M12.4 104.8H13.2M19.6 104.8H22.8M27.6 104.8H30.8M38 104.8H38.8M46 104.8H46.8M54.8 104.8H55.6M62.8 104.8H63.6M12.4 105.6H13.2M24.4 105.6H26M38.8 105.6H41.2M46 105.6H46.8M54.8 105.6H55.6M60.4 105.6H62.8M12.4 106.4H13.2M23.6 106.4H24.4M26 106.4H26.8M41.2 106.4H42M46 106.4H46.8M48.4 106.4H49.2M50 106.4H50.8M51.6 106.4H52.4M54.8 106.4H55.6M59.6 106.4H60.4M13.2 107.2H14M23.6 107.2H24.4M26 107.2H26.8M41.2 107.2H42M46 107.2H46.8M54.8 107.2H55.6M59.6 107.2H60.4M13.2 108H14M23.6 108H24.4M26 108H26.8M42 108H42.8M46.8 108H48.4M53.2 108H54.8M58.8 108H59.6M14 108.8H14.8M23.6 108.8H26.8M42 108.8H42.8M58.8 108.8H59.6M14 109.6H14.8M41.2 109.6H42M59.6 109.6H60.4M14.8 110.4H15.6M40.4 110.4H41.2M60.4 110.4H61.2M14.8 111.2H15.6M40.4 111.2H41.2M60.4 111.2H61.2M15.6 112H16.4M41.2 112H42M45.2 112H47.6M54 112H56.4M59.6 112H60.4M16.4 112.8H17.2M32.4 112.8H42.8M44.4 112.8H45.2M47.6 112.8H48.4M53.2 112.8H54M56.4 112.8H57.2M58.8 112.8H59.6M17.2 113.6H18.8M31.6 113.6H32.4M42.8 113.6H44.4M48.4 113.6H49.2M52.4 113.6H53.2M57.2 113.6H58.8M18.8 114.4H20.4M30 114.4H31.6M48.4 114.4H49.2M52.4 114.4H53.2M20.4 115.2H22.8M27.6 115.2H30M48.4 115.2H49.2M52.4 115.2H53.2M22.8 116H27.6M49.2 116H52.4" stroke="black"/>
<path d="M47.6 92H48.4ZM47.6 92.8H48.4ZM47.6 93.6H48.4ZM46.8 94.4H47.6ZM39.6 96.8H40.4ZM40.4 97.6H41.2ZM22.8 98.4H23.6ZM41.2 98.4H42ZM22.8 99.2H23.6ZM41.2 99.2H42ZM22.8 100H23.6ZM13.2 100.8H14ZM22.8 100.8H23.6ZM13.2 101.6H14ZM23.6 101.6H24.4ZM13.2 102.4H14ZM24.4 102.4H25.2ZM13.2 103.2H14ZM18.8 103.2H19.6ZM26 103.2H26.8ZM13.2 104H14ZM18.8 104H19.6ZM26 104H26.8ZM13.2 104.8H14ZM18.8 104.8H19.6ZM26.8 104.8H27.6ZM13.2 105.6H14ZM19.6 105.6H22ZM27.6 105.6H30.8ZM38 105.6H38.8ZM13.2 106.4H14ZM22.8 106.4H23.6ZM38.8 106.4H41.2ZM14 107.2H14.8ZM22.8 107.2H23.6ZM40.4 107.2H41.2ZM14 108H14.8ZM22.8 108H23.6ZM41.2 108H42ZM14.8 108.8H15.6ZM22.8 108.8H23.6ZM41.2 108.8H42ZM14.8 109.6H15.6ZM23.6 109.6H26.8ZM40.4 109.6H41.2ZM15.6 110.4H16.4ZM39.6 110.4H40.4ZM15.6 111.2H16.4ZM39.6 111.2H40.4ZM16.4 112H17.2ZM32.4 112H41.2ZM17.2 112.8H18.8ZM31.6 112.8H32.4ZM18.8 113.6H20.4ZM30 113.6H31.6ZM20.4 114.4H22.8ZM27.6 114.4H30ZM22.8 115.2H27.6Z" fill="black"/>
<path d="M47.6 92H48.4M47.6 92.8H48.4M47.6 93.6H48.4M46.8 94.4H47.6M39.6 96.8H40.4M40.4 97.6H41.2M22.8 98.4H23.6M41.2 98.4H42M22.8 99.2H23.6M41.2 99.2H42M22.8 100H23.6M13.2 100.8H14M22.8 100.8H23.6M13.2 101.6H14M23.6 101.6H24.4M13.2 102.4H14M24.4 102.4H25.2M13.2 103.2H14M18.8 103.2H19.6M26 103.2H26.8M13.2 104H14M18.8 104H19.6M26 104H26.8M13.2 104.8H14M18.8 104.8H19.6M26.8 104.8H27.6M13.2 105.6H14M19.6 105.6H22M27.6 105.6H30.8M38 105.6H38.8M13.2 106.4H14M22.8 106.4H23.6M38.8 106.4H41.2M14 107.2H14.8M22.8 107.2H23.6M40.4 107.2H41.2M14 108H14.8M22.8 108H23.6M41.2 108H42M14.8 108.8H15.6M22.8 108.8H23.6M41.2 108.8H42M14.8 109.6H15.6M23.6 109.6H26.8M40.4 109.6H41.2M15.6 110.4H16.4M39.6 110.4H40.4M15.6 111.2H16.4M39.6 111.2H40.4M16.4 112H17.2M32.4 112H41.2M17.2 112.8H18.8M31.6 112.8H32.4M18.8 113.6H20.4M30 113.6H31.6M20.4 114.4H22.8M27.6 114.4H30M22.8 115.2H27.6" stroke="#847E87"/>
<path d="M49.2 92H52.4ZM51.6 92.8H52.4ZM51.6 93.6H52.4ZM42.8 94.4H44.4ZM52.4 94.4H53.2ZM57.2 94.4H58.8ZM44.4 95.2H45.2ZM53.2 95.2H54ZM58.8 95.2H59.6ZM59.6 96H60.4ZM41.2 96.8H42ZM59.6 96.8H60.4ZM42 97.6H42.8ZM42.8 98.4H43.6ZM42.8 99.2H43.6ZM42 100H42.8ZM58.8 100H59.6ZM42 100.8H42.8ZM58.8 100.8H59.6ZM41.2 101.6H42ZM59.6 101.6H60.4ZM38.8 102.4H41.2ZM60.4 102.4H62.8ZM62 103.2H62.8ZM62 104H62.8ZM62 104.8H62.8ZM41.2 105.6H42ZM42 106.4H42.8ZM42 107.2H42.8ZM42.8 108H43.6ZM42.8 108.8H43.6ZM42 109.6H42.8ZM58.8 109.6H59.6ZM59.6 110.4H60.4ZM59.6 111.2H60.4ZM47.6 112H48.4ZM48.4 112.8H49.2ZM49.2 113.6H50ZM49.2 114.4H50ZM49.2 115.2H50Z" fill="black"/>
<path d="M49.2 92H52.4M51.6 92.8H52.4M51.6 93.6H52.4M42.8 94.4H44.4M52.4 94.4H53.2M57.2 94.4H58.8M44.4 95.2H45.2M53.2 95.2H54M58.8 95.2H59.6M59.6 96H60.4M41.2 96.8H42M59.6 96.8H60.4M42 97.6H42.8M42.8 98.4H43.6M42.8 99.2H43.6M42 100H42.8M58.8 100H59.6M42 100.8H42.8M58.8 100.8H59.6M41.2 101.6H42M59.6 101.6H60.4M38.8 102.4H41.2M60.4 102.4H62.8M62 103.2H62.8M62 104H62.8M62 104.8H62.8M41.2 105.6H42M42 106.4H42.8M42 107.2H42.8M42.8 108H43.6M42.8 108.8H43.6M42 109.6H42.8M58.8 109.6H59.6M59.6 110.4H60.4M59.6 111.2H60.4M47.6 112H48.4M48.4 112.8H49.2M49.2 113.6H50M49.2 114.4H50M49.2 115.2H50" stroke="#696A6A"/>
<path d="M22.8 92.8H47.6ZM19.6 93.6H42.8ZM44.4 93.6H47.6ZM18.8 94.4H42ZM45.2 94.4H46.8ZM17.2 95.2H41.2ZM16.4 96H40.4ZM16.4 96.8H39.6ZM15.6 97.6H40.4ZM14.8 98.4H22.8ZM26.8 98.4H41.2ZM14.8 99.2H22.8ZM26.8 99.2H41.2ZM14 100H22.8ZM26.8 100H41.2ZM14 100.8H22.8ZM26.8 100.8H41.2ZM14 101.6H23.6ZM26 101.6H38.8ZM14 102.4H19.6ZM22.8 102.4H24.4ZM25.2 102.4H27.6ZM30.8 102.4H38ZM14 103.2H18.8ZM23.6 103.2H26ZM30.8 103.2H38ZM14 104H18.8ZM23.6 104H26ZM30.8 104H38ZM14 104.8H18.8ZM22.8 104.8H26.8ZM30.8 104.8H38ZM14 105.6H19.6ZM22 105.6H24.4ZM26 105.6H27.6ZM30.8 105.6H38ZM14 106.4H22.8ZM26.8 106.4H38.8ZM14.8 107.2H22.8ZM26.8 107.2H40.4ZM14.8 108H22.8ZM26.8 108H41.2ZM15.6 108.8H22.8ZM26.8 108.8H41.2ZM15.6 109.6H23.6ZM26.8 109.6H40.4ZM16.4 110.4H39.6ZM16.4 111.2H39.6ZM17.2 112H32.4ZM18.8 112.8H31.6ZM20.4 113.6H30ZM22.8 114.4H27.6Z" fill="black"/>
<path d="M22.8 92.8H47.6M19.6 93.6H42.8M44.4 93.6H47.6M18.8 94.4H42M45.2 94.4H46.8M17.2 95.2H41.2M16.4 96H40.4M16.4 96.8H39.6M15.6 97.6H40.4M14.8 98.4H22.8M26.8 98.4H41.2M14.8 99.2H22.8M26.8 99.2H41.2M14 100H22.8M26.8 100H41.2M14 100.8H22.8M26.8 100.8H41.2M14 101.6H23.6M26 101.6H38.8M14 102.4H19.6M22.8 102.4H24.4M25.2 102.4H27.6M30.8 102.4H38M14 103.2H18.8M23.6 103.2H26M30.8 103.2H38M14 104H18.8M23.6 104H26M30.8 104H38M14 104.8H18.8M22.8 104.8H26.8M30.8 104.8H38M14 105.6H19.6M22 105.6H24.4M26 105.6H27.6M30.8 105.6H38M14 106.4H22.8M26.8 106.4H38.8M14.8 107.2H22.8M26.8 107.2H40.4M14.8 108H22.8M26.8 108H41.2M15.6 108.8H22.8M26.8 108.8H41.2M15.6 109.6H23.6M26.8 109.6H40.4M16.4 110.4H39.6M16.4 111.2H39.6M17.2 112H32.4M18.8 112.8H31.6M20.4 113.6H30M22.8 114.4H27.6" stroke="#9BADB7"/>
<path d="M49.2 92.8H51.6ZM49.2 93.6H51.6ZM48.4 94.4H52.4ZM42 95.2H44.4ZM47.6 95.2H53.2ZM56.4 95.2H58.8ZM41.2 96H59.6ZM42 96.8H59.6ZM42.8 97.6H59.6ZM43.6 98.4H58.8ZM43.6 99.2H46.8ZM48.4 99.2H53.2ZM54.8 99.2H58.8ZM42.8 100H46ZM46.8 100H54.8ZM55.6 100H58.8ZM42.8 100.8H46ZM46.8 100.8H54.8ZM55.6 100.8H58.8ZM42 101.6H46ZM46.8 101.6H54.8ZM55.6 101.6H59.6ZM41.2 102.4H46ZM46.8 102.4H54.8ZM55.6 102.4H60.4ZM38.8 103.2H45.2ZM46 103.2H55.6ZM56.4 103.2H62ZM38.8 104H45.2ZM46 104H55.6ZM56.4 104H62ZM38.8 104.8H46ZM46.8 104.8H54.8ZM55.6 104.8H62ZM42 105.6H46ZM46.8 105.6H54.8ZM55.6 105.6H60.4ZM42.8 106.4H46ZM46.8 106.4H48.4ZM49.2 106.4H50ZM50.8 106.4H51.6ZM52.4 106.4H54.8ZM55.6 106.4H59.6ZM42.8 107.2H46ZM46.8 107.2H54.8ZM55.6 107.2H59.6ZM43.6 108H46.8ZM48.4 108H53.2ZM54.8 108H58.8ZM43.6 108.8H58.8ZM42.8 109.6H58.8ZM41.2 110.4H59.6ZM41.2 111.2H59.6ZM42 112H45.2ZM48.4 112H54ZM56.4 112H59.6ZM42.8 112.8H44.4ZM49.2 112.8H53.2ZM57.2 112.8H58.8ZM50 113.6H52.4ZM50 114.4H52.4ZM50 115.2H52.4Z" fill="black"/>
<path d="M49.2 92.8H51.6M49.2 93.6H51.6M48.4 94.4H52.4M42 95.2H44.4M47.6 95.2H53.2M56.4 95.2H58.8M41.2 96H59.6M42 96.8H59.6M42.8 97.6H59.6M43.6 98.4H58.8M43.6 99.2H46.8M48.4 99.2H53.2M54.8 99.2H58.8M42.8 100H46M46.8 100H54.8M55.6 100H58.8M42.8 100.8H46M46.8 100.8H54.8M55.6 100.8H58.8M42 101.6H46M46.8 101.6H54.8M55.6 101.6H59.6M41.2 102.4H46M46.8 102.4H54.8M55.6 102.4H60.4M38.8 103.2H45.2M46 103.2H55.6M56.4 103.2H62M38.8 104H45.2M46 104H55.6M56.4 104H62M38.8 104.8H46M46.8 104.8H54.8M55.6 104.8H62M42 105.6H46M46.8 105.6H54.8M55.6 105.6H60.4M42.8 106.4H46M46.8 106.4H48.4M49.2 106.4H50M50.8 106.4H51.6M52.4 106.4H54.8M55.6 106.4H59.6M42.8 107.2H46M46.8 107.2H54.8M55.6 107.2H59.6M43.6 108H46.8M48.4 108H53.2M54.8 108H58.8M43.6 108.8H58.8M42.8 109.6H58.8M41.2 110.4H59.6M41.2 111.2H59.6M42 112H45.2M48.4 112H54M56.4 112H59.6M42.8 112.8H44.4M49.2 112.8H53.2M57.2 112.8H58.8M50 113.6H52.4M50 114.4H52.4M50 115.2H52.4" stroke="#595652"/>
<path d="M24.4 99.2H26ZM25.2 100H26ZM21.2 103.2H22.8ZM28.4 103.2H30ZM22 104H22.8ZM29.2 104H30ZM24.4 106.4H26ZM25.2 107.2H26Z" fill="black"/>
<path d="M24.4 99.2H26M25.2 100H26M21.2 103.2H22.8M28.4 103.2H30M22 104H22.8M29.2 104H30M24.4 106.4H26M25.2 107.2H26" stroke="#45283C"/>
<path d="M24.4 100H25.2ZM24.4 100.8H26ZM20.4 103.2H21.2ZM27.6 103.2H28.4ZM20.4 104H22ZM27.6 104H29.2ZM24.4 107.2H25.2ZM24.4 108H26Z" fill="black"/>
<path d="M24.4 100H25.2M24.4 100.8H26M20.4 103.2H21.2M27.6 103.2H28.4M20.4 104H22M27.6 104H29.2M24.4 107.2H25.2M24.4 108H26" stroke="#222034"/>
</g>
<defs>
<filter id="filter0_d_5_160" x="11.8964" y="31.4162" width="107.545" height="27.7269" filterUnits="userSpaceOnUse" color-interpolation-filters="sRGB">
<feFlood flood-opacity="0" result="BackgroundImageFix"/>
<feColorMatrix in="SourceAlpha" type="matrix" values="0 0 0 0 0 0 0 0 0 0 0 0 0 0 0 0 0 0 127 0" result="hardAlpha"/>
<feOffset dx="1" dy="1"/>
<feGaussianBlur stdDeviation="0.5"/>
<feComposite in2="hardAlpha" operator="out"/>
<feColorMatrix type="matrix" values="0 0 0 0 0.67451 0 0 0 0 0.196078 0 0 0 0 0.196078 0 0 0 1 0"/>
<feBlend mode="normal" in2="BackgroundImageFix" result="effect1_dropShadow_5_160"/>
<feBlend mode="normal" in="SourceGraphic" in2="effect1_dropShadow_5_160" result="shape"/>
</filter>
<clipPath id="clip0_5_160">
<rect width="128" height="128" fill="white"/>
</clipPath>
</defs>
</svg>
